<svg width="342" height="317" viewBox="0 0 342 317" fill="none" xmlns="http://www.w3.org/2000/svg">
<g clip-path="url(#clip0_135_135)">
<path d="M307.5 58.5117H0V72.5842H307.5V58.5117Z" fill="white"/>
<path d="M37.125 43.6986C41.4742 43.6986 45 40.2168 45 35.9218C45 31.6267 41.4742 28.1449 37.125 28.1449C32.7758 28.1449 29.25 31.6267 29.25 35.9218C29.25 40.2168 32.7758 43.6986 37.125 43.6986Z" fill="white"/>
<path d="M67.125 43.6986C71.4742 43.6986 75 40.2168 75 35.9218C75 31.6267 71.4742 28.1449 67.125 28.1449C62.7758 28.1449 59.25 31.6267 59.25 35.9218C59.25 40.2168 62.7758 43.6986 67.125 43.6986Z" fill="white"/>
<path d="M96.375 43.6986C100.724 43.6986 104.25 40.2168 104.25 35.9218C104.25 31.6267 100.724 28.1449 96.375 28.1449C92.0258 28.1449 88.5 31.6267 88.5 35.9218C88.5 40.2168 92.0258 43.6986 96.375 43.6986Z" fill="white"/>
<path fill-rule="evenodd" clip-rule="evenodd" d="M35.25 14.0724H272.25C283.848 14.0724 293.25 23.3573 293.25 34.8107V122.949H307.5V34.8107C307.5 15.5853 291.718 0 272.25 0H35.25C15.7819 0 0 15.5853 0 34.8107V282.189C0 301.414 15.7819 317 35.25 317H272.25C291.718 317 307.5 301.414 307.5 282.189V248.119H293.25V282.189C293.25 293.643 283.848 302.928 272.25 302.928H35.25C23.652 302.928 14.25 293.643 14.25 282.189V34.8107C14.25 23.3573 23.652 14.0724 35.25 14.0724Z" fill="white"/>
<path d="M307.5 111.468C307.5 107.582 304.31 104.432 300.375 104.432C296.44 104.432 293.25 107.582 293.25 111.468V123.319C293.25 127.205 296.44 130.355 300.375 130.355C304.31 130.355 307.5 127.205 307.5 123.319V111.468Z" fill="white"/>
<path d="M307.5 237.38C307.5 233.494 304.31 230.344 300.375 230.344C296.44 230.344 293.25 233.494 293.25 237.38V249.23C293.25 253.116 296.44 256.266 300.375 256.266C304.31 256.266 307.5 253.116 307.5 249.23V237.38Z" fill="white"/>
<path d="M97.5 220.796V139.161H126.187C142.644 139.161 154.742 142.815 162.481 150.124C170.308 157.432 174.223 167.461 174.223 180.212C174.223 192.729 170.308 202.642 162.481 209.951C154.742 217.181 142.644 220.796 126.187 220.796H97.5ZM108.708 212.633H125.92C134.994 212.633 142.199 211.35 147.536 208.784C152.962 206.141 156.832 202.41 159.145 197.589C161.458 192.691 162.614 186.899 162.614 180.212C162.614 173.37 161.458 167.5 159.145 162.602C156.832 157.704 152.962 153.933 147.536 151.29C142.199 148.646 134.994 147.325 125.92 147.325H108.708V212.633Z" fill="white"/>
<path d="M241.511 222.196C234.661 222.196 228.701 221.108 223.631 218.931C218.561 216.754 214.646 213.722 211.889 209.834C209.132 205.947 207.752 201.437 207.752 196.306H219.494C219.494 199.494 220.34 202.448 222.029 205.169C223.72 207.813 226.166 209.951 229.368 211.583C232.66 213.139 236.707 213.916 241.511 213.916C247.826 213.916 252.719 212.594 256.188 209.951C259.657 207.308 261.392 204.003 261.392 200.038C261.392 196.773 260.591 194.168 258.99 192.224C257.389 190.203 255.209 188.57 252.452 187.326C249.783 186.082 246.67 184.994 243.112 184.061C239.642 183.128 235.995 182.078 232.17 180.912C224.965 178.735 219.628 176.053 216.158 172.865C212.69 169.599 210.955 165.362 210.955 160.153C210.866 155.8 212.022 151.95 214.424 148.608C216.826 145.187 220.206 142.543 224.565 140.677C229.013 138.733 234.26 137.762 240.31 137.762C246.269 137.762 251.429 138.733 255.788 140.677C260.235 142.621 263.66 145.303 266.062 148.724C268.553 152.145 269.843 156.033 269.931 160.386H258.189C258.189 158.132 257.522 155.916 256.188 153.739C254.854 151.485 252.808 149.657 250.05 148.258C247.382 146.858 244.001 146.159 239.909 146.159C234.839 146.081 230.658 147.208 227.367 149.54C224.165 151.873 222.563 155.1 222.563 159.22C222.563 162.719 223.675 165.401 225.899 167.267C228.212 169.133 231.414 170.688 235.506 171.932C239.598 173.098 244.313 174.459 249.65 176.014C254.097 177.413 258.101 179.046 261.659 180.912C265.217 182.778 267.974 185.188 269.931 188.143C271.977 191.097 273 194.868 273 199.455C273 203.342 271.844 207.035 269.531 210.534C267.218 213.955 263.705 216.754 258.99 218.931C254.364 221.108 248.538 222.196 241.511 222.196Z" fill="white"/>
<path fill-rule="evenodd" clip-rule="evenodd" d="M93 225.24V134.717H126.187C143.192 134.717 156.652 138.476 165.582 146.904C174.478 155.214 178.723 166.506 178.723 180.212C178.723 193.717 174.458 204.884 165.572 213.18C156.642 221.523 143.187 225.24 126.187 225.24H93ZM162.481 209.951C170.308 202.642 174.223 192.729 174.223 180.212C174.223 167.461 170.308 157.432 162.481 150.124C154.741 142.815 142.644 139.161 126.187 139.161H97.5V220.796H126.187C142.644 220.796 154.741 217.181 162.481 209.951ZM145.532 155.269L145.519 155.262C141.049 153.048 134.625 151.769 125.92 151.769H113.208V208.189H125.92C134.632 208.189 141.072 206.947 145.556 204.794C150.178 202.541 153.247 199.496 155.072 195.698C157.046 191.513 158.114 186.394 158.114 180.212C158.114 173.852 157.038 168.656 155.066 164.48L159.145 162.602C161.458 167.5 162.614 173.37 162.614 180.212C162.614 186.899 161.458 192.691 159.145 197.589C156.832 202.41 152.962 206.141 147.536 208.784C142.199 211.35 134.994 212.633 125.92 212.633H108.708V147.325H125.92C134.994 147.325 142.199 148.646 147.536 151.29C152.962 153.933 156.832 157.704 159.145 162.602L155.066 164.48C153.232 160.597 150.157 157.522 145.546 155.275L145.532 155.269ZM203.252 191.862H223.994V196.306C223.994 198.663 224.604 200.805 225.85 202.821C227.046 204.682 228.824 206.294 231.37 207.603C233.888 208.779 237.21 209.472 241.51 209.472C247.256 209.472 251.038 208.262 253.438 206.433C255.919 204.542 256.891 202.487 256.891 200.038C256.891 197.481 256.272 195.967 255.499 195.029L255.472 194.996L255.445 194.962C254.357 193.588 252.793 192.366 250.582 191.368L250.556 191.357L250.531 191.345C248.16 190.24 245.313 189.236 241.957 188.356L241.942 188.352L241.929 188.348C238.408 187.402 234.714 186.338 230.848 185.16C223.337 182.89 217.27 179.956 213.093 176.119L213.073 176.1L213.054 176.082C208.609 171.898 206.465 166.469 206.455 160.198C206.356 154.981 207.763 150.209 210.739 146.056C213.674 141.885 217.747 138.756 222.759 136.606C227.899 134.364 233.788 133.318 240.31 133.318C246.748 133.318 252.562 134.366 257.623 136.62C262.69 138.837 266.8 141.991 269.737 146.161C272.764 150.331 274.324 155.088 274.43 160.297L274.522 164.83H253.689V160.386C253.689 159.044 253.303 157.614 252.338 156.04L252.32 156.011L252.302 155.981C251.47 154.575 250.123 153.291 247.993 152.21L247.966 152.196L247.939 152.182C246.109 151.223 243.514 150.602 239.909 150.602H239.874L239.839 150.602C235.503 150.536 232.341 151.494 230.014 153.134C228.042 154.58 227.063 156.441 227.063 159.22C227.063 161.695 227.794 163.012 228.782 163.855C230.49 165.221 233.081 166.542 236.793 167.674C240.886 168.84 245.596 170.199 250.923 171.752L250.969 171.765L251.016 171.78C255.681 173.248 259.939 174.978 263.769 176.987C267.896 179.152 271.251 182.032 273.672 185.672C276.337 189.542 277.5 194.241 277.5 199.455C277.5 204.27 276.052 208.799 273.299 212.963L273.286 212.983L273.273 213.002C270.406 217.244 266.179 220.514 260.911 222.95C255.502 225.491 248.966 226.64 241.51 226.64C234.187 226.64 227.591 225.477 221.836 223.007C216.121 220.553 211.504 217.038 208.203 212.384C204.872 207.688 203.252 202.272 203.252 196.306V191.862ZM235.506 171.932C231.414 170.688 228.211 169.133 225.899 167.267C223.675 165.401 222.563 162.719 222.563 159.22C222.563 155.1 224.164 151.873 227.367 149.54C230.658 147.208 234.838 146.081 239.909 146.158C244.001 146.158 247.381 146.858 250.05 148.257C252.808 149.657 254.854 151.485 256.188 153.739C257.522 155.916 258.189 158.132 258.189 160.386H269.931C269.899 158.847 269.718 157.365 269.386 155.943C268.78 153.341 267.671 150.936 266.062 148.724C263.659 145.303 260.235 142.621 255.787 140.677C251.428 138.733 246.269 137.762 240.31 137.762C234.26 137.762 229.012 138.733 224.565 140.677C220.206 142.543 216.826 145.187 214.424 148.608C212.022 151.95 210.865 155.8 210.955 160.153C210.955 165.362 212.689 169.599 216.158 172.865C219.628 176.053 224.965 178.735 232.17 180.912C235.995 182.078 239.642 183.127 243.112 184.061C246.67 184.994 249.783 186.082 252.451 187.326C255.209 188.57 257.389 190.203 258.99 192.224C260.591 194.168 261.391 196.773 261.391 200.038C261.391 204.003 259.657 207.308 256.188 209.951C252.718 212.594 247.826 213.916 241.51 213.916C236.707 213.916 232.66 213.139 229.368 211.583C226.165 209.951 223.72 207.813 222.029 205.169C220.339 202.448 219.494 199.494 219.494 196.306H207.752C207.752 197.844 207.876 199.325 208.123 200.75C208.702 204.084 209.957 207.111 211.888 209.834C214.646 213.722 218.56 216.754 223.63 218.931C228.701 221.107 234.661 222.196 241.51 222.196C248.538 222.196 254.364 221.107 258.99 218.931C263.704 216.754 267.218 213.955 269.53 210.534C271.843 207.035 273 203.342 273 199.455C273 194.868 271.977 191.097 269.931 188.142C267.974 185.188 265.216 182.778 261.658 180.912C258.1 179.046 254.097 177.413 249.649 176.013C244.312 174.459 239.598 173.098 235.506 171.932Z" fill="white"/>
<path d="M29.25 186.092V186.572L29.6946 186.768L74.6946 206.578L75.75 207.043V205.902V197.357V196.87L75.2977 196.677L41.2134 182.133L75.2955 167.726L75.75 167.533V167.045V158.5V157.365L74.6977 157.822L29.6977 177.394L29.25 177.589V178.072V186.092Z" fill="white" stroke="white" stroke-width="2"/>
<path d="M341.25 186.092V186.572L340.805 186.768L295.805 206.578L294.75 207.043V205.902V197.357V196.87L295.202 196.677L329.287 182.133L295.204 167.726L294.75 167.533V167.045V158.5V157.365L295.802 157.822L340.802 177.394L341.25 177.589V178.072V186.092Z" fill="white" stroke="white" stroke-width="2"/>
</g>
<defs>
<clipPath id="clip0_135_135">
<rect width="342" height="317" fill="white"/>
</clipPath>
</defs>
</svg>
