<svg width="168" height="74" viewBox="0 0 168 74" fill="none" xmlns="http://www.w3.org/2000/svg">
<rect width="168" height="74" fill="#1E1E1E"/>
<g id="Landing Page" clip-path="url(#clip0_0_1)">
<rect width="1440" height="2381" transform="translate(-41 -16)" fill="#091953"/>
<g id="background blir">
<g id="actual blur circle">
<path id="Ellipse 12" d="M650.5 470.565C650.5 674.911 425.345 633.065 221 633.065C16.6546 633.065 -149 467.411 -149 263.066C-149 58.7202 76.1546 100.565 280.5 100.565C484.845 100.565 650.5 266.22 650.5 470.565Z" fill="url(#paint0_radial_0_1)"/>
</g>
</g>
<g id="Group 11">
<g id="Group 3">
<rect id="Rectangle 6" x="-41" y="-16" width="1440" height="107" fill="#D9D9D9"/>
<g id="Logo">
<path id="Vector" d="M71.0309 26.0209C71.0309 25.1138 70.2941 24.3784 69.3851 24.3784C68.4761 24.3784 67.7393 25.1138 67.7393 26.0209V28.7873C67.7393 29.6944 68.4761 30.4298 69.3851 30.4298C70.2941 30.4298 71.0309 29.6944 71.0309 28.7873V26.0209Z" fill="#1C255B"/>
<path id="Vector_2" d="M71.0309 55.4135C71.0309 54.5064 70.2941 53.771 69.3851 53.771C68.4761 53.771 67.7393 54.5064 67.7393 55.4135V58.1799C67.7393 59.087 68.4761 59.8224 69.3851 59.8224C70.2941 59.8224 71.0309 59.087 71.0309 58.1799V55.4135Z" fill="#1C255B"/>
<path id="Vector_3" d="M6.75635 43.4409V43.5531L6.85905 43.5987L17.2538 48.2232L17.4976 48.3318V48.0653V46.0706V45.957L17.3931 45.9119L9.51982 42.5167L17.3926 39.1535L17.4976 39.1086V38.9946V36.9999V36.7349L17.2545 36.8417L6.85976 41.4105L6.75635 41.456V41.5687V43.4409Z" fill="#1C255B" stroke="#1C255B" stroke-width="2"/>
<g id="DATABASE">
<path id="Vector_4" d="M137.952 50.5563V50.7813H138.177H149.434H149.659V50.5563V48.1086V47.8836H149.434H141.555V43.5333H148.695H148.92V43.3083V40.932V40.707H148.695H141.555V36.5943H149.434H149.659V36.3693V33.9216V33.6966H149.434H138.177H137.952V33.9216V50.5563Z" fill="#1C255B" stroke="#1C255B" stroke-width="0.45"/>
<path id="Vector_5" d="M125.187 50.4295L125.19 50.4307C126.192 50.8566 127.339 51.0665 128.628 51.0665C129.966 51.0665 131.11 50.8407 132.052 50.378L132.052 50.3781L132.055 50.3766C132.989 49.9015 133.704 49.2732 134.189 48.4883C134.671 47.7083 134.912 46.8594 134.912 45.9461C134.912 44.9327 134.692 44.0845 134.233 43.4192C133.785 42.7542 133.19 42.2234 132.454 41.827C131.735 41.44 130.943 41.1024 130.079 40.8136L130.079 40.8136L130.075 40.8124C129.272 40.5595 128.561 40.3228 127.94 40.1021C127.334 39.8869 126.87 39.6305 126.537 39.3388C126.229 39.0546 126.069 38.6749 126.069 38.1754C126.069 37.586 126.274 37.1681 126.666 36.8843L126.667 36.8836C127.097 36.5691 127.629 36.413 128.278 36.4279L128.278 36.428H128.283C129.043 36.428 129.603 36.6437 129.993 37.0484L129.993 37.0485L129.999 37.054C130.42 37.4608 130.63 37.9213 130.645 38.4431L130.651 38.6618H130.869H134.244H134.477L134.469 38.4292C134.435 37.409 134.153 36.5177 133.615 35.7647C133.097 35.0148 132.373 34.436 131.455 34.0255C130.55 33.6139 129.507 33.4115 128.332 33.4115C127.174 33.4115 126.14 33.6139 125.236 34.0251C124.332 34.4201 123.609 34.9912 123.075 35.7395L123.075 35.7395L123.074 35.7404C122.55 36.4818 122.302 37.3694 122.319 38.3911C122.319 39.5946 122.68 40.5816 123.418 41.3279L123.418 41.3279L123.42 41.3297C124.159 42.0589 125.211 42.6438 126.561 43.094L126.563 43.0944C127.384 43.3637 128.155 43.6172 128.878 43.8548C129.58 44.0858 130.125 44.3817 130.523 44.7359L130.523 44.7359L130.526 44.7386C130.911 45.0688 131.112 45.5323 131.112 46.16C131.112 46.7428 130.896 47.1999 130.459 47.5517C130.018 47.8916 129.407 48.0737 128.603 48.0737C127.677 48.0737 126.975 47.8252 126.469 47.3526C125.969 46.8551 125.706 46.2523 125.675 45.5326L125.666 45.3171H125.45H122.125H121.897L121.9 45.5454C121.917 46.7081 122.215 47.7124 122.803 48.5472L122.803 48.5472L122.804 48.5489C123.389 49.3612 124.186 49.9873 125.187 50.4295Z" fill="#1C255B" stroke="#1C255B" stroke-width="0.45"/>
<path id="Vector_6" d="M103.411 50.4765L103.296 50.7813H103.622H106.922H107.08L107.134 50.6334L108.484 46.9316H114.893L116.218 50.6322L116.272 50.7813H116.43H119.78H120.106L119.991 50.4765L113.685 33.8419L113.63 33.6966H113.474H109.927H109.772L109.717 33.8419L103.411 50.4765ZM109.509 44.1052L111.677 38.0767L113.868 44.1052H109.509Z" fill="#1C255B" stroke="#1C255B" stroke-width="0.45"/>
<path id="Vector_7" d="M88.3712 50.5563V50.7813H88.5962H95.7641C97.6039 50.7813 99.0595 50.3456 100.099 49.443C101.134 48.5443 101.655 47.3969 101.655 46.0174C101.655 44.9669 101.316 44.0435 100.64 43.2576C100.128 42.65 99.5099 42.2146 98.7884 41.9529C99.3679 41.7012 99.8768 41.3406 100.313 40.8715C100.951 40.1879 101.26 39.2892 101.26 38.1991C101.26 36.8822 100.756 35.7971 99.7522 34.9619C98.7605 34.1067 97.3371 33.6966 95.5178 33.6966H88.5962H88.3712V33.9216V50.5563ZM96.9442 37.1548L96.9441 37.1549L96.9504 37.1602C97.3684 37.5078 97.5836 37.9872 97.5836 38.6269C97.5836 39.3019 97.3659 39.7955 96.9504 40.1411C96.5289 40.4917 95.9062 40.6832 95.0498 40.6832H91.9741V36.5943H95.0005C95.9089 36.5943 96.5424 36.7949 96.9442 37.1548ZM95.2715 47.8599H91.9741V43.4145H95.2222C96.1063 43.4145 96.7814 43.6274 97.272 44.029C97.7556 44.4249 98.0024 44.9676 98.0024 45.6847C98.0024 46.3868 97.7633 46.913 97.2972 47.2924C96.8423 47.6603 96.1774 47.8599 95.2715 47.8599Z" fill="#1C255B" stroke="#1C255B" stroke-width="0.45"/>
<path id="Vector_8" d="M69.2671 50.4765L69.1516 50.7813H69.4775H72.7782H72.9357L72.9896 50.6334L74.3397 46.9316H80.7485L82.0744 50.6322L82.1279 50.7813H82.2863H85.6362H85.9621L85.8466 50.4765L79.5408 33.8419L79.4857 33.6966H79.3304H75.7834H75.628L75.573 33.8419L69.2671 50.4765ZM75.3645 44.1052L77.5333 38.0767L79.7236 44.1052H75.3645Z" fill="#1C255B" stroke="#1C255B" stroke-width="0.45"/>
<path id="Vector_9" d="M60.9118 50.5563V50.7813H61.1368H64.2897H64.5147V50.5563V36.5943H69.3393H69.5643V36.3693V33.9216V33.6966H69.3393H56.1118H55.8868V33.9216V36.3693V36.5943H56.1118H60.9118V50.5563Z" fill="#1C255B" stroke="#1C255B" stroke-width="0.45"/>
<path id="Vector_10" d="M39.6212 50.4765L39.5056 50.7813H39.8315H43.1323H43.2897L43.3436 50.6334L44.6937 46.9316H51.1025L52.4284 50.6322L52.4819 50.7813H52.6403H55.9902H56.3161L56.2006 50.4765L49.8948 33.8419L49.8397 33.6966H49.6844H46.1374H45.982L45.927 33.8419L39.6212 50.4765ZM45.7185 44.1052L47.8873 38.0767L50.0776 44.1052H45.7185Z" fill="#1C255B" stroke="#1C255B" stroke-width="0.45"/>
<path id="Vector_11" d="M23.5704 50.5563V50.7813H23.7954H29.6825C31.7257 50.7813 33.4234 50.437 34.7628 49.7337L34.7636 49.7332C36.115 49.0161 37.1188 48.0173 37.7654 46.7372C38.4247 45.4484 38.7504 43.9468 38.7504 42.239C38.7504 40.5317 38.4249 39.0378 37.7654 37.7645C37.119 36.4689 36.1153 35.4697 34.7632 34.7683C33.4235 34.0488 31.7256 33.6966 29.6825 33.6966H23.7954H23.5704V33.9216V50.5563ZM29.5347 47.7173H27.1733V36.7369H29.5347C30.9598 36.7369 32.0588 36.9641 32.8504 37.3983C33.6448 37.8341 34.2085 38.4536 34.5494 39.261C34.8962 40.0822 35.0736 41.0728 35.0736 42.239C35.0736 43.4211 34.8962 44.4192 34.5498 45.2399C34.2095 46.0305 33.6465 46.6425 32.8518 47.0788C32.0595 47.4981 30.9598 47.7173 29.5347 47.7173Z" fill="#1C255B" stroke="#1C255B" stroke-width="0.45"/>
</g>
<path id="Vector_12" d="M166.837 43.4409V43.5531L166.735 43.5987L156.34 48.2232L156.096 48.3318V48.0653V46.0706V45.957L156.201 45.9119L164.074 42.5167L156.201 39.1535L156.096 39.1086V38.9946V36.9999V36.7349L156.339 36.8417L166.734 41.4105L166.837 41.456V41.5687V43.4409Z" fill="#1C255B" stroke="#1C255B" stroke-width="2"/>
<path id="Vector_13" d="M71.0307 13.6589H0V16.944H71.0307V13.6589Z" fill="#1C255B"/>
<path id="Vector_14" d="M8.57543 10.2009C9.58008 10.2009 10.3945 9.38812 10.3945 8.38549C10.3945 7.38286 9.58008 6.57007 8.57543 6.57007C7.57078 6.57007 6.75635 7.38286 6.75635 8.38549C6.75635 9.38812 7.57078 10.2009 8.57543 10.2009Z" fill="#1C255B"/>
<path id="Vector_15" d="M15.5056 10.2009C16.5103 10.2009 17.3247 9.38812 17.3247 8.38549C17.3247 7.38286 16.5103 6.57007 15.5056 6.57007C14.501 6.57007 13.6865 7.38286 13.6865 8.38549C13.6865 9.38812 14.501 10.2009 15.5056 10.2009Z" fill="#1C255B"/>
<path id="Vector_16" d="M22.262 10.2009C23.2666 10.2009 24.081 9.38812 24.081 8.38549C24.081 7.38286 23.2666 6.57007 22.262 6.57007C21.2573 6.57007 20.4429 7.38286 20.4429 8.38549C20.4429 9.38812 21.2573 10.2009 22.262 10.2009Z" fill="#1C255B"/>
<path id="Vector_17" fill-rule="evenodd" clip-rule="evenodd" d="M8.14254 3.28505H62.8881C65.5672 3.28505 67.739 5.45249 67.739 8.12617V28.7009H71.0307V8.12617C71.0307 3.63821 67.3851 0 62.8881 0H8.14254C3.64554 0 0 3.63821 0 8.12617V65.8738C0 70.3617 3.64554 74 8.14254 74H62.8881C67.3851 74 71.0307 70.3617 71.0307 65.8738V57.9206H67.739V65.8738C67.739 68.5475 65.5672 70.715 62.8881 70.715H8.14254C5.46347 70.715 3.29167 68.5475 3.29167 65.8738V8.12617C3.29167 5.45249 5.46347 3.28505 8.14254 3.28505Z" fill="#1C255B"/>
</g>
</g>
</g>
</g>
<defs>
<radialGradient id="paint0_radial_0_1" cx="0" cy="0" r="1" gradientUnits="userSpaceOnUse" gradientTransform="translate(221 263.065) rotate(89.8017) scale(397.512 397.512)">
<stop stop-color="#1C255B"/>
<stop offset="0.742729"/>
</radialGradient>
<clipPath id="clip0_0_1">
<rect width="1440" height="2381" fill="white" transform="translate(-41 -16)"/>
</clipPath>
</defs>
</svg>
